<svg xmlns="http://www.w3.org/2000/svg" width="48" height="48" viewBox="0 0 256 256" fill="none" id="my-svg">
  <defs><pattern id="a" patternUnits="userSpaceOnUse" width="80" height="80" patternTransform="scale(3.19) rotate(0)"><rect x="0" y="0" width="100%" height="100%" fill="hsla(0,0%,100%,1)"/><path d="M-20.133 4.568C-13.178 4.932-6.452 7.376 0 10c6.452 2.624 13.036 5.072 20 5 6.967-.072 13.56-2.341 20-5 6.44-2.659 13.033-4.928 20-5 6.964-.072 13.548 2.376 20 5s13.178 5.068 20.133 5.432" stroke-width="30" stroke="#D7FBE8" fill="none"/><path d="M-20.133 24.568C-13.178 24.932-6.452 27.376 0 30c6.452 2.624 13.036 5.072 20 5 6.967-.072 13.56-2.341 20-5 6.44-2.659 13.033-4.928 20-5 6.964-.072 13.548 2.376 20 5s13.178 5.068 20.133 5.432" stroke-width="30" stroke="#9DF3C4" fill="none"/><path d="M-20.133 44.568C-13.178 44.932-6.452 47.376 0 50c6.452 2.624 13.036 5.072 20 5 6.967-.072 13.56-2.341 20-5 6.44-2.659 13.033-4.928 20-5 6.964-.072 13.548 2.376 20 5s13.178 5.068 20.133 5.432" stroke-width="30" stroke="#62D2A2" fill="none"/><path d="M-20.133 64.568C-13.178 64.932-6.452 67.376 0 70c6.452 2.624 13.036 5.072 20 5 6.967-.072 13.56-2.341 20-5 6.44-2.659 13.033-4.928 20-5 6.964-.072 13.548 2.376 20 5s13.178 5.068 20.133 5.432" stroke-width="30" stroke="#1FAB89" fill="none"/></pattern>
    <linearGradient id="gradient1">
      <stop class="stop1" offset="0%" stop-color="#00ff77"/>
      <stop class="stop2" offset="100%" stop-color="#6600ff"/>
    </linearGradient>
  </defs>
  
  <g id="group" transform="translate(0,0) scale(1)">
    <path d="M23.467 106.667C22.068 113.559 21.333 120.694 21.333 128.000C21.333 135.306 22.068 142.441 23.467 149.333H75.627C75.005 142.652 74.667 135.548 74.667 128.000C74.667 120.452 75.005 113.348 75.627 106.667H23.467Z" fill="url(#gradient1)" stroke-width="14" id="filled" stroke="none" stroke-linecap="round" stroke-linejoin="round"/>
    <path d="M30.209 85.333H78.795C83.115 64.626 90.295 49.091 97.742 37.714C101.759 31.576 105.814 26.711 109.460 22.939C73.833 29.183 44.289 53.107 30.209 85.333Z" fill="url(#gradient1)" stroke-width="14" id="filled" stroke="none" stroke-linecap="round" stroke-linejoin="round"/>
    <path d="M97.062 106.667C96.380 113.241 96.000 120.340 96.000 128.000C96.000 135.660 96.380 142.759 97.062 149.333H158.938C159.619 142.759 160.000 135.660 160.000 128.000C160.000 120.340 159.620 113.241 158.938 106.667H97.062Z" fill="url(#gradient1)" stroke-width="14" id="filled" stroke="none" stroke-linecap="round" stroke-linejoin="round"/>
    <path d="M155.345 85.333H100.655C104.486 69.384 110.151 57.708 115.591 49.397C120.175 42.394 124.685 37.648 128.000 34.678C131.315 37.648 135.825 42.394 140.409 49.397C145.849 57.708 151.514 69.384 155.345 85.333Z" fill="url(#gradient1)" stroke-width="14" id="filled" stroke="none" stroke-linecap="round" stroke-linejoin="round"/>
    <path d="M180.373 106.667C180.995 113.348 181.333 120.452 181.333 128.000C181.333 135.548 180.995 142.652 180.373 149.333H232.533C233.932 142.441 234.667 135.306 234.667 128.000C234.667 120.694 233.932 113.559 232.533 106.667H180.373Z" fill="url(#gradient1)" stroke-width="14" id="filled" stroke="none" stroke-linecap="round" stroke-linejoin="round"/>
    <path d="M225.791 85.333H177.205C172.885 64.626 165.706 49.091 158.258 37.714C154.241 31.576 150.187 26.711 146.540 22.939C182.167 29.183 211.711 53.107 225.791 85.333Z" fill="url(#gradient1)" stroke-width="14" id="filled" stroke="none" stroke-linecap="round" stroke-linejoin="round"/>
    <path d="M225.791 170.667H177.205C172.884 191.373 165.706 206.909 158.258 218.286C154.240 224.425 150.186 229.289 146.539 233.061C182.167 226.818 211.711 202.893 225.791 170.667Z" fill="url(#gradient1)" stroke-width="14" id="filled" stroke="none" stroke-linecap="round" stroke-linejoin="round"/>
    <path d="M155.345 170.667H100.655C104.486 186.615 110.151 198.291 115.591 206.603C120.175 213.605 124.685 218.351 128.000 221.322C131.315 218.351 135.825 213.605 140.409 206.603C145.849 198.291 151.514 186.615 155.345 170.667Z" fill="url(#gradient1)" stroke-width="14" id="filled" stroke="none" stroke-linecap="round" stroke-linejoin="round"/>
    <path d="M78.795 170.667H30.209C44.289 202.893 73.833 226.818 109.461 233.061C105.814 229.289 101.760 224.425 97.742 218.286C90.295 206.909 83.115 191.373 78.795 170.667Z" fill="url(#gradient1)" stroke-width="14" id="filled" stroke="none" stroke-linecap="round" stroke-linejoin="round"/>
  </g>
</svg>